<?xml version="1.0" encoding="UTF-8" ?>
<!DOCTYPE svg PUBLIC "-//W3C//DTD SVG 1.1//EN" "http://www.w3.org/Graphics/SVG/1.1/DTD/svg11.dtd">
<svg width="387pt" height="77pt" viewBox="0 0 387 77" version="1.1" xmlns="http://www.w3.org/2000/svg">
<g id="#fefefeff">
</g>
<g id="#333333ff">
<path fill="#e8e8e8" opacity="1.00" d=" M 303.34 2.59 C 309.56 3.01 315.76 2.99 322.00 3.55 C 329.46 3.84 336.91 3.17 344.38 3.31 C 342.08 3.72 339.76 4.00 337.47 4.41 C 344.37 6.23 351.53 6.65 358.60 7.63 C 358.65 7.00 358.75 5.74 358.81 5.11 C 358.98 5.75 359.33 7.04 359.51 7.68 C 360.34 7.69 362.02 7.72 362.86 7.73 L 362.08 6.11 C 364.36 5.90 366.64 5.69 368.90 5.31 C 366.24 4.74 363.51 4.86 360.82 4.56 C 367.36 3.54 374.35 4.61 380.06 8.07 C 380.05 9.37 380.05 10.66 380.05 11.96 C 379.07 13.15 378.06 14.32 377.02 15.46 C 377.57 16.60 378.15 17.73 378.58 18.93 C 377.65 20.17 376.63 21.33 375.58 22.46 C 378.90 23.73 377.98 27.14 377.20 29.78 C 375.78 30.75 374.39 31.76 372.99 32.74 C 376.25 34.01 380.50 33.20 383.05 35.85 C 382.90 36.61 382.60 38.13 382.44 38.88 C 379.70 39.72 376.81 39.82 373.97 40.08 C 374.97 41.95 376.04 43.78 377.09 45.62 C 376.38 45.64 374.97 45.68 374.26 45.70 L 374.14 46.54 C 376.78 47.13 379.52 47.62 381.96 48.87 C 383.43 50.36 384.21 52.37 385.31 54.14 C 383.97 54.34 382.64 54.54 381.31 54.74 C 381.95 55.48 382.58 56.21 383.23 56.95 C 382.57 57.09 381.27 57.37 380.61 57.52 C 380.19 58.21 379.34 59.61 378.91 60.30 C 378.58 59.63 377.91 58.27 377.57 57.59 C 377.64 58.17 377.77 59.35 377.84 59.93 C 375.58 60.17 373.32 60.40 371.06 60.51 C 370.25 64.21 367.80 67.10 365.63 70.08 C 363.61 70.33 361.83 71.27 360.06 72.21 C 355.80 72.81 351.47 73.04 347.20 72.41 C 335.48 73.59 323.69 72.95 311.94 73.13 C 305.93 72.26 299.82 74.15 293.87 72.73 C 291.34 71.95 288.74 73.24 286.19 72.64 C 282.15 71.72 278.09 73.12 274.03 72.77 C 268.02 72.09 261.99 72.83 255.96 72.81 C 245.30 73.25 234.70 71.49 224.04 72.01 C 221.81 71.73 218.72 72.68 217.26 70.48 C 205.17 71.31 193.02 71.34 180.92 70.83 C 177.82 69.94 174.64 70.48 171.51 70.06 C 164.81 70.88 158.11 69.34 151.42 70.09 C 146.28 70.26 141.12 70.17 135.99 70.02 C 132.39 69.05 128.70 68.99 125.00 69.13 C 111.66 68.35 98.36 70.22 85.02 69.99 C 77.34 69.90 69.64 71.74 62.02 70.31 C 53.02 69.81 44.00 69.99 35.00 70.01 C 30.75 69.68 27.07 72.22 22.97 72.79 C 20.45 72.75 19.80 69.94 18.56 68.27 C 17.08 68.40 15.25 69.20 14.44 67.44 C 15.11 67.19 16.43 66.68 17.09 66.43 C 15.17 65.63 11.66 65.49 13.36 62.53 C 8.97 61.36 4.84 59.32 1.01 56.91 C 0.15 53.90 3.79 53.53 5.87 53.35 C 7.71 52.83 10.25 53.63 11.44 51.73 C 12.11 51.73 13.45 51.73 14.13 51.73 C 13.65 51.41 12.71 50.78 12.24 50.46 C 12.44 49.51 12.83 47.61 13.03 46.66 C 14.40 46.74 16.00 46.77 16.75 45.39 C 14.94 45.19 13.11 45.29 11.29 45.30 C 12.93 41.99 16.84 41.44 20.00 40.45 C 19.09 39.39 18.46 37.79 16.66 38.00 C 17.33 37.64 18.66 36.92 19.33 36.56 C 17.66 36.54 15.94 36.42 14.49 35.51 C 13.80 35.55 12.40 35.65 11.71 35.69 L 11.63 34.47 L 9.45 34.54 C 10.13 33.89 11.48 32.60 12.15 31.95 C 11.17 31.95 9.20 31.94 8.22 31.94 C 8.32 31.20 8.53 29.73 8.63 29.00 C 7.78 29.00 6.09 29.01 5.24 29.01 C 5.32 27.77 5.39 26.52 5.45 25.28 C 7.59 24.10 9.89 23.28 12.25 22.66 C 11.94 21.90 11.31 20.37 10.99 19.60 C 11.53 16.76 12.29 13.52 15.62 12.93 C 13.89 12.41 12.28 11.59 11.11 10.17 C 11.78 8.41 12.40 6.63 13.04 4.86 C 32.39 5.13 51.79 6.92 71.10 4.98 C 76.48 4.93 81.84 4.53 87.16 3.66 C 93.72 3.59 100.61 5.88 106.97 3.41 C 114.08 1.58 120.90 5.67 128.03 4.70 C 138.34 3.53 148.69 4.80 159.03 4.66 C 166.84 4.29 174.69 5.38 182.47 4.09 C 182.77 6.78 186.21 5.96 187.28 4.21 C 192.15 3.65 197.14 3.96 201.92 5.01 C 209.38 5.78 216.81 3.00 224.25 4.40 C 228.11 5.02 232.03 5.09 235.93 5.30 C 239.54 4.56 243.23 4.47 246.89 4.78 C 250.07 5.10 253.12 3.89 256.26 3.84 C 265.12 4.63 274.15 5.52 282.97 3.91 C 289.90 3.79 296.80 4.95 303.74 4.52 C 303.64 4.04 303.44 3.07 303.34 2.59 M 67.13 20.87 C 65.00 29.09 64.68 37.69 63.46 46.09 C 62.79 48.40 67.21 48.64 67.20 46.46 C 67.38 39.07 67.65 31.59 69.38 24.37 C 72.56 30.16 75.09 36.29 77.94 42.24 C 78.40 43.20 79.16 44.86 80.45 43.80 C 83.72 38.65 85.54 32.33 90.28 28.28 C 91.14 34.47 91.73 40.71 92.67 46.90 C 92.84 48.45 94.24 49.58 95.78 48.82 C 96.05 44.27 94.66 39.75 94.41 35.20 C 93.47 30.66 93.94 24.92 89.87 21.79 C 85.58 26.38 83.42 32.50 79.95 37.69 C 76.17 32.94 75.20 26.50 70.98 22.04 C 70.11 20.72 68.48 21.04 67.13 20.87 M 128.10 22.03 C 127.79 25.66 128.09 29.31 127.91 32.95 C 125.71 33.03 123.52 33.08 121.33 33.21 C 121.50 34.06 121.76 34.88 122.10 35.68 C 124.16 35.80 126.23 35.73 128.30 35.72 C 128.61 39.47 128.23 43.22 128.51 46.96 C 128.60 48.42 129.72 50.77 131.47 49.59 C 131.80 44.72 131.27 39.82 131.44 34.94 C 133.44 34.98 135.45 35.06 137.45 34.97 C 137.54 34.31 137.70 32.99 137.79 32.33 C 135.60 32.37 133.41 32.44 131.23 32.51 C 131.03 29.02 131.17 25.50 130.66 22.03 C 130.83 20.63 127.93 20.43 128.10 22.03 M 312.20 22.29 C 311.98 25.86 312.19 29.43 312.11 33.00 C 310.04 33.04 307.96 33.05 305.89 33.04 C 305.93 33.71 305.99 35.07 306.02 35.74 C 308.16 35.72 310.31 35.71 312.46 35.69 C 313.02 39.75 312.29 43.88 312.93 47.93 C 312.84 49.49 314.60 49.78 315.76 49.89 C 315.82 44.91 315.65 39.92 315.67 34.93 C 317.70 34.97 319.74 35.00 321.78 35.03 C 321.80 34.36 321.84 33.01 321.86 32.34 C 319.72 32.38 317.60 32.44 315.47 32.51 C 315.30 28.71 315.38 24.87 314.64 21.12 C 313.58 20.67 312.26 20.99 312.20 22.29 M 208.70 28.78 C 208.47 34.92 209.89 40.99 210.32 47.10 C 210.35 48.59 211.73 51.21 213.57 49.16 C 214.23 45.53 211.58 41.38 213.82 37.90 C 217.13 33.09 224.18 31.12 229.41 33.91 C 229.63 32.65 229.81 31.39 229.95 30.12 C 223.74 29.07 217.31 30.69 212.38 34.60 C 212.01 32.26 211.75 29.00 208.70 28.78 M 104.48 31.51 C 100.14 34.22 97.50 39.92 99.08 44.92 C 101.31 49.56 107.38 49.79 111.76 48.73 C 114.81 47.80 118.74 46.47 119.40 42.89 C 114.77 44.34 110.15 47.22 105.12 46.11 C 103.05 45.56 100.68 42.64 102.73 40.76 C 106.01 37.57 111.02 39.54 115.07 39.05 C 117.83 39.49 119.91 35.87 118.24 33.69 C 115.12 29.65 108.72 28.62 104.48 31.51 M 149.84 30.87 C 143.80 33.02 138.20 39.19 139.29 45.97 C 140.40 48.94 144.32 48.76 146.91 48.37 C 150.80 47.95 153.56 45.02 156.11 42.36 C 156.43 44.78 156.62 47.22 156.59 49.67 C 157.36 49.64 158.88 49.58 159.65 49.55 C 157.60 44.14 159.21 38.13 157.42 32.67 C 156.35 29.58 152.33 30.05 149.84 30.87 M 191.23 31.23 C 186.54 33.86 183.52 40.01 185.65 45.19 C 184.89 45.67 181.86 47.12 183.98 47.65 C 187.78 46.87 191.04 49.85 194.86 49.22 C 199.06 48.79 204.21 47.35 205.98 43.06 C 201.27 43.92 196.97 47.11 192.00 46.24 C 189.46 45.94 186.59 42.39 189.38 40.42 C 193.38 37.56 198.66 39.66 203.21 39.01 C 204.62 37.74 205.50 35.96 204.84 34.04 C 201.91 29.89 195.58 28.61 191.23 31.23 M 265.91 30.87 C 260.88 33.26 257.78 39.37 259.30 44.79 C 261.47 49.54 267.70 49.83 272.12 48.71 C 275.05 47.79 278.72 46.54 279.80 43.34 C 275.49 43.44 271.56 47.00 266.96 46.35 C 264.50 46.55 263.07 44.38 261.78 42.68 C 264.39 36.95 271.31 39.64 276.14 38.99 C 279.04 38.89 280.04 34.71 277.98 32.92 C 274.84 29.95 269.84 28.89 265.91 30.87 M 162.99 30.81 C 162.65 36.81 163.43 42.83 162.74 48.82 C 163.48 54.24 163.23 59.72 163.35 65.18 C 164.24 64.90 165.14 64.62 166.03 64.33 C 165.77 59.51 165.71 54.68 165.70 49.85 C 168.37 49.40 171.07 49.30 173.76 49.58 C 172.46 49.16 171.12 48.87 169.81 48.50 C 171.35 47.91 172.91 47.37 174.49 46.88 C 174.71 47.05 175.16 47.38 175.38 47.55 C 176.48 47.71 177.58 47.69 178.66 47.50 C 179.21 46.12 176.92 45.89 176.18 45.15 C 179.52 43.78 181.93 40.53 182.73 37.06 C 183.31 34.53 181.58 31.94 179.19 31.17 C 174.69 29.86 170.01 31.12 165.65 32.36 C 164.76 31.83 163.88 31.31 162.99 30.81 M 237.20 34.23 C 234.36 36.27 231.46 39.33 231.94 43.11 C 231.94 46.27 235.12 48.06 237.83 48.68 C 243.07 49.74 248.40 48.14 253.35 46.52 C 254.61 45.77 257.43 45.31 256.72 43.31 C 250.64 42.50 245.38 48.19 239.12 46.59 C 235.49 46.39 233.53 41.59 235.90 38.89 C 238.93 35.32 243.70 34.13 248.00 32.87 C 248.41 33.31 249.22 34.21 249.63 34.66 C 250.59 35.77 251.26 33.46 251.93 32.96 C 251.65 32.46 251.09 31.47 250.81 30.97 C 246.05 30.01 241.05 31.34 237.20 34.23 M 284.19 30.79 C 283.86 42.23 284.59 53.67 284.53 65.11 C 285.42 64.79 286.96 65.27 287.06 63.88 C 287.11 59.09 286.78 54.31 286.83 49.52 C 293.08 48.47 299.62 45.67 302.88 39.92 C 304.54 37.33 304.49 33.21 301.46 31.65 C 296.79 29.53 291.51 31.07 286.83 32.37 C 285.95 31.83 285.07 31.30 284.19 30.79 Z" />
<path fill="#e8e8e8" opacity="1.00" d=" M 103.01 36.32 C 105.88 32.15 112.69 30.28 116.39 34.48 C 113.01 38.02 107.36 36.58 103.01 36.32 Z" />
<path fill="#e8e8e8" opacity="1.00" d=" M 189.30 36.31 C 191.95 32.51 198.62 30.12 202.12 34.15 C 202.02 34.52 201.80 35.24 201.70 35.60 C 197.85 37.40 193.38 36.78 189.30 36.31 Z" />
<path fill="#e8e8e8" opacity="1.00" d=" M 263.33 36.34 C 265.91 32.48 272.64 30.13 276.13 34.15 C 276.02 34.52 275.80 35.24 275.69 35.60 C 271.85 37.40 267.41 36.77 263.33 36.34 Z" />
<path fill="#e8e8e8" opacity="1.00" d=" M 150.39 33.61 C 152.41 32.59 156.10 33.06 155.86 35.97 C 154.86 41.20 150.38 46.07 144.95 46.62 C 142.52 46.66 140.95 44.04 142.01 41.88 C 143.56 38.18 146.63 35.05 150.39 33.61 Z" />
<path fill="#e8e8e8" opacity="1.00" d=" M 166.12 36.33 C 169.37 32.40 177.98 31.14 179.99 36.90 C 178.88 43.59 170.92 45.41 165.32 46.88 C 165.51 43.40 164.48 39.56 166.12 36.33 Z" />
<path fill="#e8e8e8" opacity="1.00" d=" M 288.92 34.83 C 292.15 32.89 296.99 31.94 299.99 34.78 C 301.84 36.29 301.17 39.05 299.72 40.59 C 296.37 44.36 291.24 45.67 286.55 46.91 C 286.99 42.95 284.97 37.51 288.92 34.83 Z" />
</g>
</svg>
